<svg xmlns="http://www.w3.org/2000/svg" version="1.1" xmlns:xlink="http://www.w3.org/1999/xlink" xmlns:svgjs="http://svgjs.dev/svgjs" viewBox="0 0 800 800" opacity="0.52"><defs><linearGradient x1="50%" y1="0%" x2="50%" y2="100%" id="cccoil-grad"><stop stop-color="hsl(0, 0%, 49%)" stop-opacity="1" offset="0%"></stop><stop stop-color="hsl(331, 0%, 14%)" stop-opacity="1" offset="100%"></stop></linearGradient></defs><g stroke="url(#cccoil-grad)" fill="none" stroke-linecap="round"><circle r="287.5" cx="400" cy="400" stroke-width="2.5" stroke-dasharray="1626 1806" opacity="0.05"></circle><circle r="275" cx="400" cy="400" stroke-width="2.5" stroke-dasharray="1484 1728" transform="rotate(16, 400, 400)" opacity="0.09"></circle><circle r="262.5" cx="400" cy="400" stroke-width="2.5" stroke-dasharray="1349 1649" transform="rotate(33, 400, 400)" opacity="0.14"></circle><circle r="250" cx="400" cy="400" stroke-width="2.5" stroke-dasharray="1221 1571" transform="rotate(49, 400, 400)" opacity="0.18"></circle><circle r="237.5" cx="400" cy="400" stroke-width="2.5" stroke-dasharray="1099 1492" transform="rotate(65, 400, 400)" opacity="0.22"></circle><circle r="225" cx="400" cy="400" stroke-width="2.5" stroke-dasharray="983 1414" transform="rotate(82, 400, 400)" opacity="0.27"></circle><circle r="212.5" cx="400" cy="400" stroke-width="2.5" stroke-dasharray="874 1335" transform="rotate(98, 400, 400)" opacity="0.31"></circle><circle r="200" cx="400" cy="400" stroke-width="2.5" stroke-dasharray="771 1257" transform="rotate(115, 400, 400)" opacity="0.35"></circle><circle r="187.5" cx="400" cy="400" stroke-width="2.5" stroke-dasharray="675 1178" transform="rotate(131, 400, 400)" opacity="0.40"></circle><circle r="175" cx="400" cy="400" stroke-width="2.5" stroke-dasharray="585 1100" transform="rotate(147, 400, 400)" opacity="0.44"></circle><circle r="162.5" cx="400" cy="400" stroke-width="2.5" stroke-dasharray="501 1021" transform="rotate(164, 400, 400)" opacity="0.48"></circle><circle r="150" cx="400" cy="400" stroke-width="2.5" stroke-dasharray="424 942" transform="rotate(180, 400, 400)" opacity="0.53"></circle><circle r="137.5" cx="400" cy="400" stroke-width="2.5" stroke-dasharray="353 864" transform="rotate(196, 400, 400)" opacity="0.57"></circle><circle r="125" cx="400" cy="400" stroke-width="2.5" stroke-dasharray="289 785" transform="rotate(213, 400, 400)" opacity="0.61"></circle><circle r="112.5" cx="400" cy="400" stroke-width="2.5" stroke-dasharray="231 707" transform="rotate(229, 400, 400)" opacity="0.65"></circle><circle r="100" cx="400" cy="400" stroke-width="2.5" stroke-dasharray="180 628" transform="rotate(245, 400, 400)" opacity="0.70"></circle><circle r="87.5" cx="400" cy="400" stroke-width="2.5" stroke-dasharray="135 550" transform="rotate(262, 400, 400)" opacity="0.74"></circle><circle r="75" cx="400" cy="400" stroke-width="2.5" stroke-dasharray="96 471" transform="rotate(278, 400, 400)" opacity="0.78"></circle><circle r="62.5" cx="400" cy="400" stroke-width="2.5" stroke-dasharray="64 393" transform="rotate(295, 400, 400)" opacity="0.83"></circle><circle r="50" cx="400" cy="400" stroke-width="2.5" stroke-dasharray="39 314" transform="rotate(311, 400, 400)" opacity="0.87"></circle><circle r="37.5" cx="400" cy="400" stroke-width="2.5" stroke-dasharray="19 236" transform="rotate(327, 400, 400)" opacity="0.91"></circle><circle r="25" cx="400" cy="400" stroke-width="2.5" stroke-dasharray="6 157" transform="rotate(344, 400, 400)" opacity="0.96"></circle><circle r="12.5" cx="400" cy="400" stroke-width="2.5" stroke-dasharray="0 79" transform="rotate(360, 400, 400)" opacity="1.00"></circle></g></svg>